<svg xmlns="http://www.w3.org/2000/svg" width="16" height="16" viewBox="0 0 16 16"><title>Photoshop_hover</title><rect width="16" height="16" rx="2.092" style="fill:#26c9ff"/><rect x="1" y="1" width="14" height="14" rx="1.833" style="fill:#061e26"/><path d="M3.932,4.088c0-.044.011-.077.064-.077.419-.022,1.023-.033,1.667-.033,1.8,0,2.587,1.012,2.587,2.312,0,1.7-1.21,2.421-2.68,2.421-.247,0-.333-.01-.5-.01v2.6c0,.055-.021.077-.075.077H4.007c-.054,0-.075-.022-.075-.077ZM5.065,7.633c.15.01.269.01.526.01.762,0,1.489-.274,1.489-1.332,0-.847-.523-1.276-1.392-1.276-.258,0-.5.011-.623.022Zm5.817-.793c-.515,0-.687.264-.687.484,0,.242.118.408.8.771,1.02.506,1.342.99,1.342,1.706a1.646,1.646,0,0,1-1.868,1.64,2.878,2.878,0,0,1-1.355-.286c-.043-.022-.054-.055-.054-.11v-.98c0-.066.032-.088.076-.054a2.445,2.445,0,0,0,1.333.4c.515,0,.73-.221.73-.518,0-.242-.15-.451-.805-.8C9.476,8.634,9.09,8.172,9.09,7.4a1.613,1.613,0,0,1,1.792-1.574,3.089,3.089,0,0,1,1.185.187.146.146,0,0,1,.065.133V7.06c0,.055-.032.088-.1.066A2.362,2.362,0,0,0,10.882,6.84Z" style="fill:#d9f5ff;fill-rule:evenodd"/></svg>