<svg xmlns="http://www.w3.org/2000/svg" width="16" height="16" viewBox="0 0 16 16">
  <path d="M13.222,0H2.778A2.778,2.778,0,0,0,0,2.778H0v9.444A2.778,2.778,0,0,0,2.778,15H13.222A2.778,2.778,0,0,0,16,12.222h0V2.778A2.778,2.778,0,0,0,13.222,0Z" style="fill: #061e36"/>
  <path d="M8.654,5.411a2.112,2.112,0,0,0-.488-.757,2.409,2.409,0,0,0-.9-.547A4.034,4.034,0,0,0,5.9,3.9q-.3,0-.607,0l-.58.011L4.2,3.93c-.158,0-.262,0-.377,0-.042,0-.064.025-.064.075v6.859c0,.057.025.086.075.086h1.3a.086.086,0,0,0,.073-.1V8.717c.129,0,.225,0,.29,0s.175.006.332.006a4.261,4.261,0,0,0,1.5-.226,2.244,2.244,0,0,0,1.073-.81,2.377,2.377,0,0,0,.4-1.417A2.5,2.5,0,0,0,8.654,5.411ZM7.135,6.994a1.159,1.159,0,0,1-.547.355,2.531,2.531,0,0,1-.767.122H5.466c-.079,0-.164,0-.257-.011V5.223c.05-.007.141-.012.273-.016s.285,0,.456,0a1.978,1.978,0,0,1,.784.134,1,1,0,0,1,.467.381,1.1,1.1,0,0,1,.156.59A1.028,1.028,0,0,1,7.135,6.994Z" style="fill: #4ea9ff"/>
  <path d="M12.916,10.29a1.7,1.7,0,0,1-.747.6,3,3,0,0,1-1.207.215,4.377,4.377,0,0,1-.907-.086,2.855,2.855,0,0,1-.681-.215.138.138,0,0,1-.076-.128V9.511a.066.066,0,0,1,.027-.059.053.053,0,0,1,.059.006,2.873,2.873,0,0,0,.826.327,3.405,3.405,0,0,0,.784.1,1.206,1.206,0,0,0,.553-.1.3.3,0,0,0,.177-.28.356.356,0,0,0-.161-.268,2.642,2.642,0,0,0-.655-.311,3.956,3.956,0,0,1-.95-.483,1.645,1.645,0,0,1-.5-.564A1.476,1.476,0,0,1,9.3,7.2a1.544,1.544,0,0,1,.226-.8,1.633,1.633,0,0,1,.7-.612A2.625,2.625,0,0,1,11.4,5.551a5.2,5.2,0,0,1,.827.059,2.142,2.142,0,0,1,.575.156.1.1,0,0,1,.064.059.309.309,0,0,1,.011.08V6.989a.073.073,0,0,1-.032.064.1.1,0,0,1-.093,0,2.523,2.523,0,0,0-.638-.225,3.408,3.408,0,0,0-.746-.086,1.37,1.37,0,0,0-.4.049.36.36,0,0,0-.209.134.334.334,0,0,0-.054.182.286.286,0,0,0,.065.172.718.718,0,0,0,.225.177,4.594,4.594,0,0,0,.472.22,4.7,4.7,0,0,1,1.025.488,1.549,1.549,0,0,1,.526.553,1.475,1.475,0,0,1,.156.687A1.547,1.547,0,0,1,12.916,10.29Z" style="fill: #4ea9ff"/>
</svg>
