<?xml version="1.0" encoding="UTF-8"?>
<svg id="New_Icons" xmlns="http://www.w3.org/2000/svg" version="1.1" viewBox="0 0 24 16">
  <!-- Generator: Adobe Illustrator 29.2.0, SVG Export Plug-In . SVG Version: 2.1.0 Build 104)  -->
  <defs>
    <style>
      .st0 {
        fill: #262626;
      }

      .st1 {
        fill: #ccc;
      }
    </style>
  </defs>
  <g id="ICONS">
    <path class="st1" d="M13.2,1H2.8C1.2,1,0,2.2,0,3.8h0v9.4c0,1.5,1.2,2.8,2.8,2.8h10.4c1.5,0,2.8-1.2,2.8-2.8h0V3.8c0-1.5-1.2-2.8-2.8-2.8Z"/>
  </g>
  <path class="st0" d="M8.7,6.4c-.1-.3-.3-.5-.5-.8-.3-.2-.6-.4-.9-.5-.4-.1-.9-.2-1.4-.2-.2,0-.4,0-.6,0h-.6s-.5,0-.5,0h-.4s0,0,0,0v6.9c0,0,0,0,0,0h1.3s0,0,0,0c0,0,0,0,0,0v-2.1h.3c0,0,.2,0,.3,0,.5,0,1,0,1.5-.2.4-.2.8-.4,1.1-.8.3-.4.4-.9.4-1.4,0-.3,0-.6-.1-.9ZM7.1,8c-.1.2-.3.3-.5.4-.2,0-.5.1-.8.1h-.4c0,0-.2,0-.3,0v-2.2c0,0,.1,0,.3,0s.3,0,.5,0c.3,0,.5,0,.8.1.2,0,.4.2.5.4.1.2.2.4.2.6,0,.2,0,.5-.2.7Z"/>
  <path class="st0" d="M12.9,11.3c-.2.3-.4.5-.7.6-.4.2-.8.2-1.2.2-.3,0-.6,0-.9,0-.2,0-.5-.1-.7-.2,0,0,0,0,0-.1v-1.2s0,0,0,0c0,0,0,0,0,0,.3.2.5.3.8.3.3,0,.5,0,.8.1.2,0,.4,0,.6-.1.1,0,.2-.2.2-.3,0-.1,0-.2-.2-.3-.2-.1-.4-.2-.7-.3-.3-.1-.7-.3-.9-.5-.2-.1-.4-.3-.5-.6-.1-.2-.2-.4-.2-.7,0-.3,0-.6.2-.8.2-.3.4-.5.7-.6.4-.2.8-.2,1.2-.2.3,0,.6,0,.8,0,.2,0,.4,0,.6.2,0,0,0,0,0,0,0,0,0,0,0,0v1.1s0,0,0,0c0,0,0,0,0,0-.2-.1-.4-.2-.6-.2-.2,0-.5,0-.7,0-.1,0-.3,0-.4,0,0,0-.2,0-.2.1,0,0,0,.1,0,.2,0,0,0,.1,0,.2,0,0,.1.1.2.2.2,0,.3.2.5.2.4.1.7.3,1,.5.2.1.4.3.5.6.1.2.2.4.2.7,0,.3,0,.6-.3.9Z"/>
</svg>